<?xml version="1.0" encoding="UTF-8"?>
<svg width="32" height="32" viewBox="0 0 32 32" fill="none" xmlns="http://www.w3.org/2000/svg">
  <!-- 背景 -->
  <rect width="32" height="32" rx="8" fill="#4F46E5"/>
  
  <!-- 左侧对话气泡（包含 API 字样）-->
  <path d="M4 10C4 8.89543 4.89543 8 6 8H16C17.1046 8 18 8.89543 18 10V13C18 14.1046 17.1046 15 16 15H13L11 17V15H6C4.89543 15 4 14.1046 4 13V10Z" fill="white"/>
  
  <!-- API 文字，使用 dominant-baseline 和 text-anchor 实现居中 -->
  <text x="11" y="12.5" font-family="Arial" font-size="5" fill="#4F46E5" font-weight="bold" 
        dominant-baseline="middle" text-anchor="middle">API</text>
  
  <!-- 右侧对话气泡（包含代码括号）-->
  <path d="M28 22C28 23.1046 27.1046 24 26 24H16C14.8954 24 14 23.1046 14 22V19C14 17.8954 14.8954 17 16 17H19L21 15V17H26C27.1046 17 28 17.8954 28 19V22Z" fill="white"/>
  
  <!-- 代码括号在右侧气泡中，调整位置和大小 -->
  <path d="M18 21.5L20 20L18 18.5" stroke="#4F46E5" stroke-width="1.5" stroke-linecap="round" stroke-linejoin="round"/>
  <path d="M24 21.5L22 20L24 18.5" stroke="#4F46E5" stroke-width="1.5" stroke-linecap="round" stroke-linejoin="round"/>
</svg>
